<svg width="87" height="71" viewBox="0 0 87 71" fill="none" xmlns="http://www.w3.org/2000/svg">
<path d="M26.3041 0H19.2948C14.7401 0 11.0479 3.6926 11.0479 8.24764V10.189C11.0479 14.7441 14.7401 18.4367 19.2948 18.4367H26.3041C30.8587 18.4367 34.551 14.7441 34.551 10.189V8.24764C34.551 3.6926 30.8587 0 26.3041 0Z" fill="#E3E4E6"/>
<path d="M67.9945 0H60.9852C56.4306 0 52.7383 3.6926 52.7383 8.24764V10.189C52.7383 14.7441 56.4306 18.4367 60.9852 18.4367H67.9945C72.5492 18.4367 76.2415 14.7441 76.2415 10.189V8.24764C76.2415 3.6926 72.5492 0 67.9945 0Z" fill="#E3E4E6"/>
<rect y="8" width="87" height="63" rx="10.8812" fill="#E3E4E6"/>
<path d="M39.265 43.5114C38.4436 42.9402 38.2637 41.7806 39.031 41.1384C39.6081 40.6554 40.2506 40.2428 40.9436 39.9123C42.2041 39.3113 43.5966 38.9987 45.0085 39C46.4205 39.0013 47.8124 39.3163 49.0716 39.9196C49.7639 40.2513 50.4055 40.665 50.9816 41.149C51.7477 41.7926 51.5656 42.9519 50.7431 43.5217C49.9816 44.0492 48.9507 43.8591 48.1856 43.3369C47.9565 43.1805 47.7141 43.0408 47.4604 42.9192C46.6995 42.5547 45.8584 42.3643 45.0052 42.3636C44.1519 42.3628 43.3104 42.5516 42.5488 42.9148C42.2947 43.036 42.052 43.1754 41.8224 43.3315C41.0565 43.8522 40.0254 44.0403 39.265 43.5114Z" fill="#999999"/>
<circle cx="35" cy="31" r="8" fill="white"/>
<circle cx="36" cy="31" r="5" fill="#999999"/>
<circle cx="51" cy="31" r="8" fill="white"/>
<circle cx="51" cy="31" r="5" fill="#999999"/>
<rect x="23" y="23" width="19" height="7" transform="rotate(-12.8071 23 23)" fill="#E3E4E6"/>
<rect width="19" height="7" transform="matrix(-0.975122 -0.221669 -0.221669 0.975122 64 23)" fill="#E3E4E6"/>
</svg>
