<svg width="26" height="26" viewBox="0 0 26 26" fill="none" xmlns="http://www.w3.org/2000/svg">
<g clip-path="url(#clip0_601_14374)">
<mask id="path-1-inside-1_601_14374" fill="white">
<path fill-rule="evenodd" clip-rule="evenodd" d="M2.16675 13.0003C2.16675 7.02033 7.02008 2.16699 13.0001 2.16699C18.9801 2.16699 23.8334 7.02033 23.8334 13.0003C23.8334 18.9803 18.9801 23.8337 13.0001 23.8337C7.02008 23.8337 2.16675 18.9803 2.16675 13.0003Z"/>
</mask>
<path d="M13.0001 1.16699C6.4678 1.16699 1.16675 6.46804 1.16675 13.0003H3.16675C3.16675 7.57261 7.57237 3.16699 13.0001 3.16699V1.16699ZM24.8334 13.0003C24.8334 6.46804 19.5324 1.16699 13.0001 1.16699V3.16699C18.4278 3.16699 22.8334 7.57261 22.8334 13.0003H24.8334ZM13.0001 24.8337C19.5324 24.8337 24.8334 19.5326 24.8334 13.0003H22.8334C22.8334 18.428 18.4278 22.8337 13.0001 22.8337V24.8337ZM1.16675 13.0003C1.16675 19.5326 6.4678 24.8337 13.0001 24.8337V22.8337C7.57237 22.8337 3.16675 18.428 3.16675 13.0003H1.16675Z" fill="#E3E4E6" mask="url(#path-1-inside-1_601_14374)"/>
</g>
<defs>
<clipPath id="clip0_601_14374">
<rect width="26" height="26" fill="white"/>
</clipPath>
</defs>
</svg>
