<svg width="26" height="26" viewBox="0 0 26 26" fill="none" xmlns="http://www.w3.org/2000/svg">
<g clip-path="url(#clip0_601_14371)">
<path d="M13.0001 2.16699C7.02008 2.16699 2.16675 7.02033 2.16675 13.0003C2.16675 18.9803 7.02008 23.8337 13.0001 23.8337C18.9801 23.8337 23.8334 18.9803 23.8334 13.0003C23.8334 7.02033 18.9801 2.16699 13.0001 2.16699ZM10.0642 17.6478L6.17508 13.7587C5.75258 13.3362 5.75258 12.6537 6.17508 12.2312C6.59758 11.8087 7.28008 11.8087 7.70258 12.2312L10.8334 15.3512L18.2867 7.89783C18.7092 7.47533 19.3918 7.47533 19.8142 7.89783C20.2367 8.32033 20.2367 9.00283 19.8142 9.42533L11.5917 17.6478C11.1801 18.0703 10.4867 18.0703 10.0642 17.6478Z" fill="#323232"/>
</g>
<defs>
<clipPath id="clip0_601_14371">
<rect width="26" height="26" fill="white"/>
</clipPath>
</defs>
</svg>
