<svg width="24" height="24" viewBox="0 0 24 24" fill="none" xmlns="http://www.w3.org/2000/svg">
<g clip-path="url(#clip0_724_15694)">
<path fill-rule="evenodd" clip-rule="evenodd" d="M7 3C4.79086 3 3 4.79086 3 7V17C3 19.2091 4.79086 21 7 21H17C19.2091 21 21 19.2091 21 17V7C21 4.79086 19.2091 3 17 3H7ZM17.686 9.72759C18.0879 9.34871 18.1065 8.71582 17.7276 8.31399C17.3487 7.91215 16.7158 7.89354 16.314 8.27241L10.6364 13.6256L7.68602 10.8438C7.28418 10.465 6.65129 10.4836 6.27241 10.8854C5.89354 11.2873 5.91215 11.9201 6.31399 12.299L10.6364 16.3744L17.686 9.72759Z" fill="#333333"/>
</g>
<defs>
<clipPath id="clip0_724_15694">
<rect width="24" height="24" fill="white"/>
</clipPath>
</defs>
</svg>
