<svg width="100" height="100" viewBox="0 0 100 100" fill="none" xmlns="http://www.w3.org/2000/svg">
<circle cx="50" cy="50" r="48.5" stroke="#D5D5DB" stroke-width="3"/>
<mask id="path-2-inside-1_914_16808" fill="white">
<path d="M50 1.51489C50 0.678239 50.6785 -0.00239698 51.5147 0.0229447C59.962 0.278925 68.2157 2.67253 75.4994 6.99091C83.2179 11.5671 89.5627 18.136 93.8682 26.0087C98.1737 33.8814 100.281 42.7677 99.9699 51.7354C99.6584 60.7031 96.9395 69.4217 92.0982 76.9768C87.2568 84.5318 80.4716 90.6448 72.4543 94.6745C64.4369 98.7041 55.4828 100.502 46.5313 99.8795C37.5798 99.257 28.9608 96.2371 21.5784 91.1365C14.6118 86.3232 8.98871 79.8245 5.22684 72.2568C4.85442 71.5076 5.18934 70.6068 5.94947 70.2573V70.2573C6.70959 69.9077 7.60695 70.2418 7.98083 70.9903C11.5145 78.0643 16.7814 84.1396 23.3006 88.6438C30.2357 93.4353 38.3324 96.2723 46.7415 96.8571C55.1506 97.4418 63.5621 95.7529 71.0936 91.9674C78.6252 88.1819 84.9992 82.4393 89.5472 75.3421C94.0951 68.2449 96.6494 60.0545 96.9419 51.6302C97.2345 43.2059 95.2546 34.8581 91.21 27.4625C87.1653 20.0669 81.205 13.896 73.9542 9.59707C67.1383 5.556 59.4181 3.30916 51.5147 3.0542C50.6785 3.02723 50 2.35154 50 1.51489V1.51489Z"/>
</mask>
<path d="M50 1.51489C50 0.678239 50.6785 -0.00239698 51.5147 0.0229447C59.962 0.278925 68.2157 2.67253 75.4994 6.99091C83.2179 11.5671 89.5627 18.136 93.8682 26.0087C98.1737 33.8814 100.281 42.7677 99.9699 51.7354C99.6584 60.7031 96.9395 69.4217 92.0982 76.9768C87.2568 84.5318 80.4716 90.6448 72.4543 94.6745C64.4369 98.7041 55.4828 100.502 46.5313 99.8795C37.5798 99.257 28.9608 96.2371 21.5784 91.1365C14.6118 86.3232 8.98871 79.8245 5.22684 72.2568C4.85442 71.5076 5.18934 70.6068 5.94947 70.2573V70.2573C6.70959 69.9077 7.60695 70.2418 7.98083 70.9903C11.5145 78.0643 16.7814 84.1396 23.3006 88.6438C30.2357 93.4353 38.3324 96.2723 46.7415 96.8571C55.1506 97.4418 63.5621 95.7529 71.0936 91.9674C78.6252 88.1819 84.9992 82.4393 89.5472 75.3421C94.0951 68.2449 96.6494 60.0545 96.9419 51.6302C97.2345 43.2059 95.2546 34.8581 91.21 27.4625C87.1653 20.0669 81.205 13.896 73.9542 9.59707C67.1383 5.556 59.4181 3.30916 51.5147 3.0542C50.6785 3.02723 50 2.35154 50 1.51489V1.51489Z" stroke="#FF7154" stroke-width="6" mask="url(#path-2-inside-1_914_16808)"/>
<circle cx="50.0002" cy="49.9997" r="41.6667" fill="#D5D5DB"/>
<mask id="mask0_914_16808" style="mask-type:alpha" maskUnits="userSpaceOnUse" x="8" y="8" width="84" height="84">
<circle cx="50.0002" cy="49.9997" r="41.6667" fill="#E3E4E6"/>
</mask>
<g mask="url(#mask0_914_16808)">
<path d="M36.5474 35.9375H31.1097C27.5763 35.9375 24.7119 38.8305 24.7119 42.3992V43.9201C24.7119 47.4888 27.5763 50.3818 31.1097 50.3818H36.5474C40.0808 50.3818 42.9452 47.4888 42.9452 43.9201V42.3992C42.9452 38.8305 40.0808 35.9375 36.5474 35.9375Z" fill="#333333"/>
<path d="M68.8911 35.9375H63.4535C59.9201 35.9375 57.0557 38.8305 57.0557 42.3992V43.9201C57.0557 47.4888 59.9201 50.3818 63.4535 50.3818H68.8911C72.4245 50.3818 75.2889 47.4888 75.2889 43.9201V42.3992C75.2889 38.8305 72.4245 35.9375 68.8911 35.9375Z" fill="#333333"/>
<rect x="16.667" y="41.667" width="68.3333" height="50" rx="6" fill="#333333"/>
<path d="M50.0005 62.2727C50.0005 66.2893 46.6426 69.5455 42.5005 69.5455C38.3584 69.5455 35.0005 66.2893 35.0005 62.2727C35.0005 58.2561 38.3584 55 42.5005 55C46.6426 55 50.0005 58.2561 50.0005 62.2727Z" fill="white"/>
<path d="M48.1255 63.1822C48.1255 65.6926 46.0268 67.7276 43.438 67.7276C40.8492 67.7276 38.7505 65.6926 38.7505 63.1822C38.7505 60.6718 40.8492 58.6367 43.438 58.6367C46.0268 58.6367 48.1255 60.6718 48.1255 63.1822Z" fill="#333333"/>
<path d="M65 62.2727C65 66.2893 61.6421 69.5455 57.5 69.5455C53.3579 69.5455 50 66.2893 50 62.2727C50 58.2561 53.3579 55 57.5 55C61.6421 55 65 58.2561 65 62.2727Z" fill="white"/>
<path d="M61.2505 63.1822C61.2505 65.6926 59.1518 67.7276 56.563 67.7276C53.9742 67.7276 51.8755 65.6926 51.8755 63.1822C51.8755 60.6718 53.9742 58.6367 56.563 58.6367C59.1518 58.6367 61.2505 60.6718 61.2505 63.1822Z" fill="#333333"/>
<path d="M44.3005 70.9834C43.3595 71.5209 43.1824 72.8024 44.1 73.3789C44.6165 73.7034 45.1777 73.9855 45.775 74.2194C47.088 74.7337 48.5385 75.0011 50.0093 75C51.4801 74.9989 52.93 74.7294 54.2417 74.2132C54.8379 73.9785 55.3981 73.6959 55.9134 73.371C56.8304 72.7928 56.6509 71.5113 55.7086 70.9752V70.9752C55.0393 70.5944 54.2059 70.7429 53.5528 71.1507C53.2471 71.3416 52.9157 71.508 52.5633 71.6466C51.7707 71.9586 50.8946 72.1214 50.0058 72.1221C49.117 72.1228 48.2404 71.9612 47.447 71.6504C47.0938 71.5121 46.7615 71.3459 46.455 71.1551C45.8017 70.7485 44.9687 70.6017 44.3005 70.9834V70.9834Z" fill="white"/>
</g>
</svg>
