<svg width="current" height="current" viewBox="0 0 24 24" fill="none" xmlns="http://www.w3.org/2000/svg">
<path d="M12.01 2C6.49 2 2.02 6.48 2.02 12C2.02 17.52 6.49 22 12.01 22C17.54 22 22.02 17.52 22.02 12C22.02 6.48 17.54 2 12.01 2ZM12.02 20C7.6 20 4.02 16.42 4.02 12C4.02 7.58 7.6 4 12.02 4C16.44 4 20.02 7.58 20.02 12C20.02 16.42 16.44 20 12.02 20ZM15.52 11C16.35 11 17.02 10.33 17.02 9.5C17.02 8.67 16.35 8 15.52 8C14.69 8 14.02 8.67 14.02 9.5C14.02 10.33 14.69 11 15.52 11ZM8.52 11C9.35 11 10.02 10.33 10.02 9.5C10.02 8.67 9.35 8 8.52 8C7.69 8 7.02 8.67 7.02 9.5C7.02 10.33 7.69 11 8.52 11ZM12.02 17.5C14.05 17.5 15.82 16.39 16.77 14.75C16.96 14.42 16.72 14 16.33 14H7.71C7.33 14 7.08 14.42 7.27 14.75C8.22 16.39 9.99 17.5 12.02 17.5Z" fill="current"/>
</svg>
