<svg width="current" height="current" viewBox="0 0 24 24" fill="none" xmlns="http://www.w3.org/2000/svg">
<path fill-rule="evenodd" clip-rule="evenodd" d="M12 22C17.5228 22 22 17.5228 22 12C22 6.47715 17.5228 2 12 2C6.47715 2 2 6.47715 2 12C2 17.5228 6.47715 22 12 22ZM8.5 11.6667C9.32843 11.6667 10 10.9951 10 10.1667C10 9.33824 9.32843 8.66667 8.5 8.66667C7.67157 8.66667 7 9.33824 7 10.1667C7 10.9951 7.67157 11.6667 8.5 11.6667ZM15.5 11.6667C16.3284 11.6667 17 10.9951 17 10.1667C17 9.33824 16.3284 8.66667 15.5 8.66667C14.6716 8.66667 14 9.33824 14 10.1667C14 10.9951 14.6716 11.6667 15.5 11.6667ZM16.4782 13.7165C16.5674 13.7045 16.6579 13.7059 16.7487 13.723C16.773 13.7275 16.7974 13.7332 16.8218 13.7401C16.8499 13.748 16.8774 13.7573 16.9044 13.7678C16.9211 13.7744 16.9377 13.7814 16.954 13.7889C17.0461 13.8314 17.1302 13.8888 17.2045 13.9576L17.2065 13.9595C17.2202 13.9723 17.2335 13.9854 17.2465 13.9989C17.368 14.1251 17.459 14.2834 17.5097 14.4555C17.5292 14.5215 17.5428 14.5896 17.5498 14.6587C17.5523 14.6827 17.554 14.7068 17.5549 14.7309C17.5553 14.7436 17.5555 14.7563 17.5556 14.769C17.5557 14.9337 17.5182 15.1009 17.4359 15.2572C17.4297 15.2689 17.4232 15.2807 17.4165 15.2923C17.4068 15.3091 17.3966 15.3258 17.3858 15.3422C17.3634 15.3766 17.3406 15.4107 17.3174 15.4446C17.2671 15.5181 17.215 15.5905 17.1612 15.6618C17.1251 15.7096 17.0881 15.757 17.0504 15.8038L17.0255 15.8346C17.0073 15.8568 16.989 15.8789 16.9706 15.9009L16.9634 15.9094C16.9398 15.9374 16.9159 15.9652 16.8917 15.9928L16.8827 16.003C16.8177 16.0768 16.7507 16.1491 16.6817 16.2199L16.6618 16.2402C16.6465 16.2558 16.631 16.2713 16.6155 16.2868L16.602 16.3002L16.5664 16.335L16.5401 16.3604C16.5042 16.3949 16.4678 16.429 16.4309 16.4627C16.3947 16.4958 16.358 16.5285 16.3209 16.5609L16.3141 16.5667C16.2885 16.589 16.2626 16.611 16.2366 16.6329C16.1042 16.7439 15.9664 16.8499 15.8233 16.9506L15.7946 16.9707C15.7754 16.9841 15.7561 16.9974 15.7367 17.0105L15.7278 17.0166L15.6852 17.0452L15.6641 17.0591C15.6289 17.0823 15.5935 17.1052 15.5578 17.1277C15.5005 17.1638 15.4427 17.199 15.3842 17.2333C15.3556 17.2501 15.3269 17.2666 15.298 17.283C15.2485 17.311 15.1987 17.3383 15.1485 17.365L15.1343 17.3726C15.0401 17.4223 14.9447 17.4697 14.8481 17.5148C14.7996 17.5374 14.7508 17.5595 14.7017 17.5809C14.6662 17.5964 14.6306 17.6116 14.5948 17.6265C14.5043 17.6642 14.4129 17.6998 14.3206 17.7335C14.2994 17.7412 14.2782 17.7488 14.2569 17.7563C14.1118 17.8075 13.9648 17.8538 13.816 17.895C13.7876 17.9028 13.7592 17.9105 13.7307 17.918C13.7082 17.9239 13.6856 17.9297 13.6629 17.9354L13.652 17.9381C13.6277 17.9442 13.6033 17.9502 13.5788 17.956C13.4636 17.9834 13.3475 18.0078 13.2307 18.0292C13.1928 18.0361 13.1548 18.0427 13.1167 18.049C13.0195 18.0651 12.9217 18.0791 12.8235 18.091C12.7812 18.0961 12.7388 18.1008 12.6963 18.1051C12.5281 18.1223 12.3588 18.1332 12.1888 18.1378L12.1614 18.1384C12.1308 18.1392 12.1001 18.1396 12.0694 18.1399L12.0447 18.1401L11.9959 18.1402L11.9944 18.1402C11.9397 18.1402 11.885 18.1394 11.8304 18.138L11.8001 18.1372C11.7489 18.1357 11.6976 18.1336 11.6465 18.1309C11.5281 18.1247 11.41 18.1154 11.2926 18.1031C11.2032 18.0937 11.114 18.0826 11.0253 18.0697C10.936 18.0568 10.847 18.0421 10.7584 18.0256C10.6742 18.0099 10.5904 17.9927 10.507 17.9739C10.4752 17.9667 10.4435 17.9593 10.4119 17.9517C10.3881 17.946 10.3644 17.9402 10.3408 17.9342L10.3289 17.9312C10.1781 17.8928 10.0289 17.8493 9.88169 17.8007C9.83182 17.7843 9.78217 17.7673 9.73276 17.7496L9.70016 17.7379C9.63853 17.7156 9.57727 17.6924 9.51641 17.6682C9.47625 17.6523 9.43626 17.636 9.39645 17.6193C9.35767 17.603 9.31905 17.5864 9.28061 17.5694C9.14941 17.5114 9.02025 17.4491 8.89342 17.3826L8.85888 17.3644C8.81065 17.3388 8.76276 17.3125 8.71523 17.2857L8.69527 17.2743C8.66648 17.2579 8.63781 17.2413 8.60928 17.2245C8.55046 17.1897 8.49221 17.1541 8.43457 17.1174C8.39238 17.0907 8.35051 17.0634 8.30898 17.0356L8.28775 17.0213L8.26352 17.0049L8.25863 17.0016C8.22872 16.9811 8.19904 16.9605 8.16957 16.9396C8.09899 16.8896 8.02969 16.8383 7.9617 16.7857L7.92758 16.7591C7.91084 16.746 7.89418 16.7328 7.8776 16.7195C7.85271 16.6995 7.828 16.6794 7.80348 16.6591C7.72231 16.592 7.64318 16.523 7.56615 16.4523C7.53542 16.424 7.50502 16.3955 7.47495 16.3667C7.45964 16.3521 7.44442 16.3373 7.42928 16.3225L7.39384 16.2876L7.3803 16.2741C7.35767 16.2514 7.33524 16.2286 7.31302 16.2057L7.28788 16.1795L7.27369 16.1646C7.21674 16.1046 7.16118 16.0436 7.10703 15.9815L7.07349 15.9427L7.04153 15.9052L7.02855 15.8897C6.92259 15.7631 6.82216 15.6321 6.72802 15.4979C6.71205 15.4751 6.69625 15.4522 6.68062 15.4292C6.65755 15.3952 6.63485 15.361 6.61255 15.3266C6.60144 15.3095 6.59092 15.2922 6.58097 15.2748C6.57818 15.2699 6.57544 15.265 6.57274 15.26C6.57116 15.2572 6.56959 15.2543 6.56805 15.2514L6.56273 15.2414C6.4971 15.1159 6.4603 14.9834 6.44859 14.851C6.4457 14.8183 6.44434 14.7856 6.44445 14.753C6.44458 14.716 6.44661 14.6792 6.45044 14.6427C6.46483 14.5056 6.50475 14.3726 6.56584 14.2517C6.57315 14.2372 6.58076 14.2229 6.58867 14.2088C6.61945 14.1539 6.65471 14.1018 6.69401 14.0533C6.71354 14.0292 6.73406 14.0061 6.75553 13.9839C6.85218 13.884 6.96797 13.8044 7.098 13.7541C7.12493 13.7436 7.15247 13.7345 7.18058 13.7266C7.20503 13.7198 7.22947 13.7142 7.25389 13.7097C7.33996 13.6938 7.42572 13.6919 7.5103 13.7022L7.52694 13.7044C7.53501 13.7056 7.54307 13.7068 7.55112 13.7082C7.64853 13.7247 7.74416 13.7571 7.83662 13.8027C7.86953 13.8189 7.90205 13.8368 7.93409 13.8563C7.94722 13.8643 7.96027 13.8725 7.97324 13.8809C7.9985 13.8974 8.02345 13.9149 8.04805 13.9332C8.0677 13.9479 8.08712 13.9631 8.10631 13.9788C8.11748 13.988 8.12856 13.9973 8.13956 14.0068C8.15716 14.022 8.17454 14.0376 8.1917 14.0537C8.21065 14.0714 8.22932 14.0897 8.2477 14.1084C8.30334 14.165 8.35631 14.2259 8.40615 14.2902C8.41698 14.3042 8.42767 14.3183 8.4382 14.3326C8.45487 14.3552 8.47117 14.3782 8.48705 14.4015L8.4935 14.4109L8.50853 14.4327L8.5309 14.4645C8.56522 14.5127 8.60073 14.5602 8.63739 14.6069L8.64443 14.6159L8.67387 14.6527C8.688 14.6702 8.7023 14.6875 8.71675 14.7048L8.74763 14.7411C8.77095 14.7682 8.79468 14.7951 8.81881 14.8216C8.87494 14.8834 8.93324 14.9435 8.99362 15.002L9.02294 15.0301L9.03817 15.0444L9.05794 15.0629C9.07887 15.0822 9.10003 15.1014 9.12143 15.1204C9.1428 15.1393 9.16441 15.1581 9.18624 15.1766C9.20368 15.1915 9.22127 15.2061 9.239 15.2207C9.26844 15.2448 9.29828 15.2686 9.32851 15.2921L9.36571 15.3205C9.40062 15.3469 9.43603 15.3728 9.47194 15.3982C9.4914 15.412 9.51101 15.4256 9.53077 15.4391C9.55436 15.4552 9.57813 15.471 9.60205 15.4866L9.64387 15.5135L9.68398 15.5386C9.7317 15.5682 9.78002 15.5968 9.82891 15.6244C9.86074 15.6424 9.89281 15.66 9.92511 15.6772C9.98671 15.7099 10.0492 15.7411 10.1124 15.7709C10.1552 15.791 10.1983 15.8104 10.2418 15.8291C10.2578 15.836 10.2738 15.8428 10.29 15.8496L10.3099 15.8578C10.39 15.8907 10.4712 15.9212 10.5533 15.9494C10.5756 15.957 10.5979 15.9644 10.6203 15.9717L10.6667 15.9865C10.7211 16.0035 10.7759 16.0195 10.8311 16.0344L10.8504 16.0396C10.8792 16.0472 10.9082 16.0546 10.9372 16.0617C11.0287 16.0841 11.121 16.1035 11.2141 16.1201C11.3394 16.1424 11.4659 16.1595 11.5934 16.1711C11.6169 16.1732 11.6405 16.1752 11.6641 16.177C11.7222 16.1814 11.7806 16.1847 11.839 16.1868L11.8693 16.1878L11.889 16.1883C11.9247 16.1892 11.9605 16.1897 11.9963 16.1898L11.9977 16.1898C12.0406 16.1899 12.0835 16.1893 12.1263 16.1882L12.1536 16.1873L12.1911 16.1859C12.2383 16.184 12.2855 16.1813 12.3325 16.1779C12.3639 16.1756 12.3953 16.173 12.4266 16.17C12.4977 16.1634 12.5685 16.155 12.6389 16.145C12.6913 16.1376 12.7435 16.1292 12.7955 16.1199C12.8444 16.1112 12.8931 16.1017 12.9416 16.0914C13.0165 16.0754 13.0909 16.0575 13.1647 16.0378C13.2192 16.0232 13.2734 16.0076 13.3272 15.991C13.3437 15.9859 13.3602 15.9807 13.3766 15.9755L13.3892 15.9714L13.3957 15.9693C13.5023 15.9344 13.6074 15.8956 13.7107 15.8528L13.7526 15.8352C13.7759 15.8253 13.7992 15.8151 13.8223 15.8048C13.9256 15.7585 14.0269 15.7083 14.1259 15.6542L14.1678 15.6311C14.1943 15.6162 14.2206 15.6011 14.2468 15.5856C14.2828 15.5644 14.3186 15.5426 14.354 15.5203L14.3715 15.5091C14.4037 15.4886 14.4356 15.4676 14.4673 15.4462C14.4871 15.4328 14.5068 15.4192 14.5264 15.4054C14.5592 15.3823 14.5917 15.3588 14.6237 15.3349C14.6402 15.3225 14.6566 15.3101 14.6729 15.2975C14.7013 15.2757 14.7293 15.2535 14.757 15.2309L14.7583 15.2299C14.7984 15.1972 14.8377 15.1639 14.8763 15.1299C14.8978 15.111 14.9191 15.0919 14.9401 15.0725L14.9618 15.0524C14.9767 15.0385 14.9916 15.0244 15.0063 15.0102L15.0329 14.9844L15.0502 14.9673L15.0833 14.9341C15.1323 14.8843 15.1798 14.8334 15.2258 14.7813L15.241 14.764C15.2697 14.7312 15.2977 14.6981 15.3251 14.6645C15.3354 14.6518 15.3457 14.639 15.3559 14.6262C15.3692 14.6095 15.3823 14.5927 15.3953 14.5757C15.4215 14.5416 15.4471 14.5071 15.4721 14.4722C15.4844 14.455 15.4966 14.4376 15.5086 14.4202L15.5162 14.4092C15.5321 14.386 15.5484 14.3631 15.5651 14.3406C15.6027 14.2899 15.6422 14.2411 15.6835 14.1946C15.7065 14.1686 15.7301 14.1434 15.7542 14.119C15.7633 14.1097 15.7726 14.1005 15.7819 14.0915C15.7912 14.0824 15.8007 14.0734 15.8101 14.0646L15.8337 14.043C15.8436 14.0341 15.8536 14.0253 15.8636 14.0167C15.8745 14.0073 15.8855 13.9981 15.8966 13.989C15.9159 13.9733 15.9354 13.9582 15.9551 13.9435C16.0227 13.8935 16.0928 13.8502 16.1648 13.8148L16.1676 13.8134C16.268 13.7644 16.3722 13.7309 16.4782 13.7165Z" fill="current"/>
</svg>
