<svg width="current" height="current" viewBox="0 0 24 24" fill="none" xmlns="http://www.w3.org/2000/svg">
<path d="M9.00002 10C10.6569 10 12 8.65685 12 7C12 5.34315 10.6569 4 9.00002 4C7.34317 4 6.00002 5.34315 6.00002 7C6.00002 8.65685 7.34317 10 9.00002 10Z" fill="CURRENT"/>
<path d="M18.3011 11.2338C18.3011 11.2338 18.3011 11.2338 18.3011 11.2338C17.8463 11.7061 17.2075 12 16.5 12C15.1193 12 14 10.8807 14 9.5C14 8.29187 14.857 7.2839 15.9962 7.05079C16.1589 7.01749 16.3274 7 16.5 7C16.7685 7 17.0271 7.04232 17.2695 7.12066C18.2737 7.44518 19 8.38777 19 9.5C19 10.1732 18.7339 10.7843 18.3011 11.2338Z" fill="CURRENT"/>
<path d="M11.6788 11.609C12.0047 11.7632 12.3192 11.9451 12.6197 12.1526C12.0759 12.503 11.5778 12.9246 11.1367 13.4059C10.4495 14.1556 9.91256 15.0363 9.54896 15.994C9.13634 17.0807 9.29015 18.1481 9.77376 19H5.00002C3.34317 19 1.94928 17.6201 2.49173 16.0546C2.50517 16.0158 2.51888 15.9771 2.53286 15.9385C2.88465 14.9679 3.40026 14.086 4.05027 13.3431C4.70028 12.6003 5.47196 12.011 6.32123 11.609C7.17051 11.2069 8.08077 11 9.00002 11C9.91927 11 10.8295 11.2069 11.6788 11.609Z" fill="CURRENT"/>
<path d="M19.6533 19C19.9773 19 20.2886 18.9322 20.566 18.8116C21.3984 18.4498 21.9264 17.6127 21.5814 16.7039C21.305 15.9759 20.8998 15.3145 20.3891 14.7574C19.8784 14.2002 19.2721 13.7583 18.6048 13.4567C17.9375 13.1552 17.2223 13 16.5 13C16.1389 13 15.7795 13.0388 15.427 13.1153C15.0745 13.1918 14.7289 13.306 14.3953 13.4567C13.728 13.7583 13.1217 14.2002 12.611 14.7574C12.1002 15.3145 11.6951 15.9759 11.4187 16.7039C11.0102 17.7798 11.8255 18.7554 12.9207 18.9605C13.007 18.9767 13.095 18.988 13.1842 18.9943C13.238 18.9981 13.2922 19 13.3468 19H19.6533Z" fill="CURRENT"/>
</svg>
