<svg width="current" height="current" viewBox="0 0 24 24" fill="none" xmlns="http://www.w3.org/2000/svg">
<path fill-rule="evenodd" clip-rule="evenodd" d="M7.00155 8.12562C7.00052 8.08387 7 8.042 7 8V7C7 4.23858 9.23858 2 12 2C14.7614 2 17 4.23858 17 7V8C17 8.042 16.9995 8.08387 16.9985 8.12562C18.7245 8.56913 20 10.1356 20 12V18C20 20.2091 18.2091 22 16 22H8C5.79086 22 4 20.2091 4 18V12C4 10.1356 5.27553 8.56913 7.00155 8.12562ZM15 7V8H9V7C9 5.34315 10.3431 4 12 4C13.6569 4 15 5.34315 15 7ZM12 13C10.8954 13 10 13.8954 10 15C10 16.1046 10.8954 17 12 17C13.1046 17 14 16.1046 14 15C14 13.8954 13.1046 13 12 13Z" fill="current"/>
</svg>
