<svg width="212" height="74" viewBox="0 0 212 74" fill="none" xmlns="http://www.w3.org/2000/svg">
<path fill-rule="evenodd" clip-rule="evenodd" d="M22.4104 23.8434L19.2672 33H36.0079L33.2309 24.0113C32.4942 21.6265 30.2894 20 27.7933 20C25.3623 20 23.1997 21.5441 22.4104 23.8434ZM14.1673 47.8572L17.3548 38.5714H37.7291L40.5979 47.8572H14.1673ZM11.6173 55.2858L10.1551 59.5455C9.78999 60.609 9.66152 61.6813 9.73521 62.7143H4.64285C2.07868 62.7143 0 64.793 0 67.3571C0 69.9213 2.07867 72 4.64285 72H49.3571C51.9213 72 54 69.9213 54 67.3571C54 64.793 51.9213 62.7143 49.3571 62.7143H44.624C44.6917 61.759 44.5869 60.769 44.2818 59.7815L42.8929 55.2858H11.6173Z" fill="#B7BABF"/>
<path d="M90.7368 1L83.7508 1C79.2113 1 75.5312 4.68608 75.5312 9.23308V11.171C75.5312 15.7181 79.2113 19.4041 83.7508 19.4041H90.7368C95.2763 19.4041 98.9563 15.7181 98.9563 11.171V9.23308C98.9563 4.68608 95.2763 1 90.7368 1Z" fill="#E3E4E6"/>
<path d="M132.29 1L125.304 1C120.764 1 117.084 4.68608 117.084 9.23308V11.171C117.084 15.7181 120.764 19.4041 125.304 19.4041H132.29C136.83 19.4041 140.51 15.7181 140.51 11.171V9.23308C140.51 4.68608 136.83 1 132.29 1Z" fill="#E3E4E6"/>
<rect x="64" y="9.10352" width="87" height="62.8974" rx="8.46216" fill="#E3E4E6"/>
<ellipse cx="99.7507" cy="31.6875" rx="7.99824" ry="8.14651" fill="white"/>
<ellipse cx="99.8871" cy="31.8206" rx="4.88028" ry="5.02368" fill="#999999"/>
<ellipse cx="115.885" cy="31.6875" rx="8.1338" ry="8.14651" fill="white"/>
<path d="M104.094 44.7197C103.479 45.6446 103.88 46.905 104.966 47.1347C105.637 47.2763 106.324 47.3692 107.021 47.4114C108.458 47.4984 109.904 47.3675 111.276 47.0261C112.647 46.6848 113.918 46.1397 115.014 45.4219C115.357 45.1979 115.68 44.9585 115.983 44.7052C116.976 43.8737 116.527 42.3972 115.321 41.9256C114.431 41.5779 113.435 41.9282 112.691 42.5272C112.533 42.6538 112.367 42.7744 112.193 42.8884C111.531 43.3221 110.763 43.6515 109.934 43.8578C109.105 44.0641 108.232 44.1432 107.363 44.0906C106.975 44.0671 106.591 44.0176 106.217 43.9429C105.413 43.783 104.548 44.0377 104.094 44.7197Z" fill="#999999"/>
<path d="M116.778 28.6449L112.955 31.8192L116.988 34.1356" stroke="#999999" stroke-width="2.79344" stroke-linecap="round" stroke-linejoin="round"/>
<path fill-rule="evenodd" clip-rule="evenodd" d="M197.505 34.9156C197.829 36.2049 198.051 37.5237 198.167 38.8607C198.461 42.2662 198.06 45.7226 196.988 49.0327C195.915 52.3427 194.191 55.4416 191.915 58.1523C190.101 60.3117 187.965 62.1912 185.587 63.7251C186.893 66.333 185.902 69.5254 183.319 70.9255C180.683 72.3543 177.388 71.3758 175.959 68.74L151.587 23.778C150.158 21.1422 151.137 17.8472 153.773 16.4185C156.356 15.0183 159.572 15.93 161.044 18.4477C163.627 17.2923 166.368 16.5283 169.167 16.1873C172.681 15.7593 176.218 16.0063 179.578 16.9141C182.937 17.8219 186.051 19.3728 188.744 21.4782C189.801 22.3048 190.785 23.2104 191.689 24.1862C193.355 23.7263 195.178 24.4552 196.037 26.0401L198.325 30.26C199.184 31.8448 198.799 33.7702 197.505 34.9156Z" fill="#B7BABF"/>
<path fill-rule="evenodd" clip-rule="evenodd" d="M186.157 32.8748C185.631 31.9037 184.417 31.5432 183.446 32.0696L180.431 33.7035L178.922 30.9195C178.396 29.9484 177.182 29.5879 176.211 30.1143L174 31.3125C173.029 31.8389 172.669 33.0528 173.195 34.0239L174.704 36.8079L171.69 38.4418C170.719 38.9681 170.359 40.1821 170.885 41.1532L171.933 43.0873C172.46 44.0584 173.674 44.4189 174.645 43.8925L177.659 42.2586L179.168 45.0425C179.694 46.0136 180.908 46.3741 181.879 45.8477L184.09 44.6495C185.061 44.1231 185.421 42.9092 184.895 41.9381L183.386 39.1542L186.4 37.5203C187.371 36.9939 187.732 35.78 187.205 34.8089L186.157 32.8748Z" fill="white"/>
</svg>
